<?xml version="1.0" encoding="UTF-8"?>
<!DOCTYPE svg PUBLIC "-//W3C//DTD SVG 1.1//EN" "http://www.w3.org/Graphics/SVG/1.1/DTD/svg11.dtd">
<!-- Creator: CorelDRAW 2020 (64-Bit) -->
<svg xmlns="http://www.w3.org/2000/svg" xml:space="preserve" width="210mm" height="210mm" version="1.1" style="shape-rendering:geometricPrecision; text-rendering:geometricPrecision; image-rendering:optimizeQuality; fill-rule:evenodd; clip-rule:evenodd"
viewBox="0 0 21000 21000"
 xmlns:xlink="http://www.w3.org/1999/xlink"
 xmlns:xodm="http://www.corel.com/coreldraw/odm/2003">
 <defs>
  <style type="text/css">
   <![CDATA[
    .fil0 {fill:#FFFFFF}
    .fil1 {fill:#FFFFFF}
   ]]>
  </style>
 </defs>
 <g id="Camada_x0020_1">
  <metadata id="CorelCorpID_0Corel-Layer"/>
  <path class="fil0" d="M12225.38 4656.57c409.33,-454.26 1294.45,-673.12 1945.37,-42.74 615.13,568.83 596.49,1626.37 -86.47,2087.79 -518.07,381.04 -1112.69,467.14 -1620.62,59.94l-529.44 169.47 172.08 -511.6c-582.79,-635.65 -363.93,-1306.5 119.08,-1762.86zm1772.2 1331.1c-41.49,-22.73 -245.26,-132.7 -283.49,-148.24 -38.21,-15.5 -66.09,-23.59 -95.88,17.65 -29.75,41.12 -114.3,133.26 -139.91,160.53 -25.75,27.29 -50.49,29.82 -92.01,7.05 -41.39,-22.64 -175.86,-72.39 -331.84,-222.32 -121.36,-116.67 -200.95,-258.14 -224.05,-301.32 -23.1,-43.23 -0.17,-65.25 21.78,-85.48 19.7,-18.26 44.12,-47.82 66.16,-71.66 21.99,-23.85 29.76,-41.19 44.88,-68.86 15.12,-27.67 9.03,-52.6 -0.77,-74.13 -9.78,-21.48 -86.48,-232.57 -118.52,-318.45 -32.02,-85.87 -67.71,-73.09 -92.37,-74.06 -24.65,-0.84 -52.67,-5.49 -80.85,-6.52 -28.16,-1.07 -74.36,7.81 -114.63,48.6 -40.29,40.81 -153.26,138.91 -161.05,346.83 -7.77,207.8 136.05,414.35 156.11,443.28 20.07,29 274.65,479.57 697.7,664.86 423.17,185.24 425.38,128.76 503.01,124.6 77.69,-4.08 253.76,-92.89 292.7,-190.14 38.9,-97.28 42.02,-181.85 32.13,-199.86 -9.92,-18 -37.63,-29.7 -79.1,-52.36zm-775.98 1001.66c-279.78,0 -540.37,-83.93 -757.94,-227.77l-529.44 169.47 172.08 -511.6c-164.92,-227.19 -262.35,-506.24 -262.35,-807.79 0,-759.72 618.03,-1377.78 1377.65,-1377.78 759.74,0 1377.75,618.06 1377.75,1377.78 0,759.66 -618.01,1377.69 -1377.75,1377.69zm0 -3032.67c-913.96,0 -1654.9,740.92 -1654.9,1654.98 0,312.66 86.76,605.1 237.45,854.57l-298.7 887.89 916.26 -293.32c237.12,131.07 509.77,205.84 799.89,205.84 914.1,0 1655,-741.02 1655,-1654.98 0,-914.06 -740.9,-1654.98 -1655,-1654.98z"/>
  <path class="fil1" d="M14923.75 12407.77c-237.37,-130.04 -1403.21,-759.25 -1621.96,-848.15 -218.58,-88.72 -378.08,-134.98 -548.53,100.95 -170.23,235.31 -653.98,762.44 -800.51,918.48 -147.3,156.16 -288.84,170.63 -526.42,40.31 -236.79,-129.52 -1006.18,-414.16 -1898.57,-1271.94 -694.39,-667.56 -1149.72,-1476.96 -1281.87,-1724.02 -132.19,-247.33 -0.98,-373.32 124.58,-489.05 112.69,-104.47 252.42,-273.6 378.54,-409.99 125.78,-136.48 170.23,-235.65 256.77,-393.96 86.48,-158.33 51.69,-300.97 -4.38,-424.15 -56.01,-122.87 -494.82,-1330.64 -678.11,-1821.96 -183.23,-491.29 -387.42,-418.21 -528.53,-423.72 -140.99,-4.85 -301.35,-31.46 -462.57,-37.31 -161.12,-6.16 -425.41,44.66 -655.82,278.04 -230.53,233.51 -876.87,794.79 -921.42,1984.38 -44.48,1188.86 778.38,2370.67 893.16,2536.15 114.81,165.94 1571.35,2743.81 3991.84,3803.98 2421.1,1059.83 2433.76,736.66 2877.9,712.87 444.47,-23.36 1451.88,-531.45 1674.66,-1087.85 222.56,-556.62 240.4,-1040.49 183.84,-1143.52 -56.77,-102.94 -215.32,-169.89 -452.6,-299.54zm-4439.69 5730.88c-1600.75,0 -3091.69,-480.16 -4336.5,-1303.18l-3029.12 969.64 984.54 -2927.1c-943.59,-1299.83 -1501.03,-2896.38 -1501.03,-4621.66 0,-4346.71 3536.05,-7882.88 7882.11,-7882.88 4346.8,0 7882.67,3536.17 7882.67,7882.88 0,4346.31 -3535.87,7882.3 -7882.67,7882.3zm0 -17351.15c-5229.1,0 -9468.36,4239.14 -9468.36,9468.85 0,1788.86 496.41,3462.02 1358.57,4889.35l-1709 5079.96 5242.32 -1678.22c1356.67,749.9 2916.59,1177.7 4576.47,1177.7 5229.93,0 9468.95,-4239.65 9468.95,-9468.79 0,-5229.71 -4239.02,-9468.85 -9468.95,-9468.85z"/>
 </g>
</svg>
