<?xml version="1.0" encoding="UTF-8"?>
<!DOCTYPE svg PUBLIC "-//W3C//DTD SVG 1.1//EN" "http://www.w3.org/Graphics/SVG/1.1/DTD/svg11.dtd">
<!-- Creator: CorelDRAW 2020 (64-Bit) -->
<svg xmlns="http://www.w3.org/2000/svg" xml:space="preserve" width="210mm" height="210mm" version="1.1" style="shape-rendering:geometricPrecision; text-rendering:geometricPrecision; image-rendering:optimizeQuality; fill-rule:evenodd; clip-rule:evenodd"
viewBox="0 0 21000 21000"
 xmlns:xlink="http://www.w3.org/1999/xlink"
 xmlns:xodm="http://www.corel.com/coreldraw/odm/2003">
 <defs>
  <style type="text/css">
   <![CDATA[
    .fil0 {fill:#FFFFFF;fill-rule:nonzero}
   ]]>
  </style>
 </defs>
 <g id="Layer_x0020_1">
  <metadata id="CorelCorpID_0Corel-Layer"/>
  <g id="_2524789688880">
   <g>
    <path class="fil0" d="M10499.97 2598.59c2573.5,0 2878.29,9.79 3894.59,56.15 939.7,42.89 1450.03,199.89 1789.68,331.86 449.85,174.85 770.95,383.74 1108.19,720.97 337.23,337.24 546.12,658.34 720.94,1108.19 132,339.65 289,849.98 331.89,1789.66 46.36,1016.32 56.15,1321.11 56.15,3894.61 0,2573.47 -9.79,2878.26 -56.15,3894.55 -42.89,939.71 -199.89,1450.04 -331.89,1789.69 -174.82,449.85 -383.71,770.95 -720.94,1108.19 -337.24,337.26 -658.34,546.15 -1108.19,720.94 -339.65,131.99 -849.98,289 -1789.68,331.89 -1016.15,46.39 -1320.95,56.18 -3894.59,56.18 -2573.61,0 -2878.43,-9.79 -3894.55,-56.18 -939.71,-42.89 -1450.04,-199.9 -1789.66,-331.89 -449.88,-174.79 -770.98,-383.68 -1108.22,-720.94 -337.26,-337.24 -546.15,-658.34 -720.94,-1108.19 -131.99,-339.65 -289,-849.98 -331.89,-1789.63 -46.39,-1016.35 -56.18,-1321.14 -56.18,-3894.61 0,-2573.5 9.79,-2878.29 56.18,-3894.59 42.89,-939.7 199.9,-1450.03 331.89,-1789.68 174.79,-449.85 383.68,-770.95 720.94,-1108.19 337.24,-337.23 658.34,-546.12 1108.22,-720.97 339.62,-131.97 849.95,-288.97 1789.6,-331.86 1016.35,-46.36 1321.14,-56.15 3894.61,-56.15l0 0zm0 -1736.64c-2617.55,0 -2945.71,11.1 -3973.73,58 -1025.88,46.84 -1726.48,209.74 -2339.56,448.03 -633.78,246.28 -1171.28,575.86 -1707.08,1111.65 -535.82,535.82 -865.37,1073.3 -1111.68,1707.07 -238.26,613.12 -401.18,1313.69 -448,2339.6 -46.9,1027.96 -57.97,1356.18 -57.97,3973.73 0,2617.55 11.07,2945.77 57.97,3973.73 46.82,1025.88 209.74,1726.48 448,2339.56 246.31,633.75 575.86,1171.28 1111.68,1707.08 535.8,535.82 1073.3,865.37 1707.08,1111.68 613.08,238.26 1313.68,401.18 2339.56,448 1028.02,46.9 1356.18,57.97 3973.73,57.97 2617.55,0 2945.77,-11.07 3973.73,-57.97 1025.91,-46.82 1726.48,-209.74 2339.6,-448 633.77,-246.31 1171.25,-575.86 1707.07,-1111.68 535.79,-535.8 865.37,-1073.3 1111.65,-1707.08 238.29,-613.08 401.19,-1313.68 448.03,-2339.56 46.9,-1027.96 58,-1356.18 58,-3973.73 0,-2617.55 -11.1,-2945.77 -58,-3973.73 -46.84,-1025.91 -209.74,-1726.48 -448.03,-2339.6 -246.28,-633.77 -575.86,-1171.25 -1111.65,-1707.07 -535.82,-535.79 -1073.3,-865.37 -1707.07,-1111.65 -613.12,-238.29 -1313.69,-401.19 -2339.6,-448.03 -1027.96,-46.9 -1356.18,-58 -3973.73,-58zm0 4688.78c-2733.38,0 -4949.27,2215.89 -4949.27,4949.3 0,2733.38 2215.89,4949.27 4949.27,4949.27 2733.41,0 4949.3,-2215.89 4949.3,-4949.27 0,-2733.41 -2215.89,-4949.3 -4949.3,-4949.3zm0 8161.98c-1774.29,0 -3212.68,-1438.39 -3212.68,-3212.68 0,-1774.32 1438.39,-3212.71 3212.68,-3212.71 1774.32,0 3212.71,1438.39 3212.71,3212.71 0,1774.29 -1438.39,3212.68 -3212.71,3212.68zm6301.37 -8357.52c0,638.76 -517.78,1156.6 -1156.53,1156.6 -638.76,0 -1156.6,-517.84 -1156.6,-1156.6 0,-638.75 517.84,-1156.53 1156.6,-1156.53 638.75,0 1156.53,517.78 1156.53,1156.53z"/>
   </g>
  </g>
 </g>
</svg>
