<?xml version="1.0" encoding="UTF-8"?>
<!DOCTYPE svg PUBLIC "-//W3C//DTD SVG 1.1//EN" "http://www.w3.org/Graphics/SVG/1.1/DTD/svg11.dtd">
<!-- Creator: CorelDRAW 2020 (64-Bit) -->
<svg xmlns="http://www.w3.org/2000/svg" xml:space="preserve" width="210mm" height="210mm" version="1.1" style="shape-rendering:geometricPrecision; text-rendering:geometricPrecision; image-rendering:optimizeQuality; fill-rule:evenodd; clip-rule:evenodd"
viewBox="0 0 21000 21000"
 xmlns:xlink="http://www.w3.org/1999/xlink"
 xmlns:xodm="http://www.corel.com/coreldraw/odm/2003">
 <defs>
  <style type="text/css">
   <![CDATA[
    .fil0 {fill:#FFFFFF}
   ]]>
  </style>
 </defs>
 <g id="Layer_x0020_1">
  <metadata id="CorelCorpID_0Corel-Layer"/>
  <g id="_2524948105552">
   <path class="fil0" d="M9966.59 9216.16c-180.15,-133.75 -353.25,-262.08 -528.89,-392.22l-2105.71 -1560.46c-1046.79,-776.42 -2122.56,-1564.18 -3162.36,-2345.85 -348.52,-262.08 -699.86,-518.4 -1052.6,-780.42 -230.73,-171.36 -573.67,-414.44 -793.57,-588.1 -51.65,-40.83 -225.43,-159.07 -254.97,-195.72l16919.73 0.57c-18.6,24.86 -108.2,88.02 -133.52,106 -42.68,30.34 -86.77,62.48 -130.87,94.96 -434.27,320.26 -903.79,655.81 -1325.22,977.21 -177.55,135.43 -352.69,256.16 -530.24,390.86l-530.59 390.58c-180.09,128.33 -354.89,260.67 -530.58,390.47 -353.6,261.12 -708.77,522.07 -1061.17,781.05 -972.93,715.02 -1942.98,1441.31 -2916.58,2149.06 -398.03,289.31 -797.86,595.94 -1195.99,881.02 -30.79,22.1 -101.49,81.25 -135.21,93.2l-531.66 -392.21zm-7316.94 8806.64l0 -8.46c-14.04,-108.88 -3.44,-5412.02 -3.44,-5455.5l0 -5301.39c0,-27.18 0.17,-54.36 -0.22,-81.48 -0.12,-10.54 -1.13,-36.31 -0.17,-45.27l11.56 -35.13 481.24 334.53c237.05,158.9 489.82,348.35 728.9,508.03 82.94,55.43 163.91,111.42 245.21,170.23 164.42,118.97 329.07,223.68 490.5,340.4 158.61,114.68 320.44,224.35 483.5,338.03 165.49,115.3 325.74,227.34 490.27,340.62l3418.36 2378.89c160.19,115.59 327.93,223.51 490.32,340.23 207.89,149.42 837.55,568.42 977.16,683.16 49.67,25.49 32.7,29.04 130.08,-38.68l1352.23 -932.44c169.72,-110.74 323.48,-227.63 492.41,-338.25 393.91,-258.02 828.41,-585 1229.08,-847.76 82.33,-53.96 161.6,-110 246.01,-169.38 482.83,-339.89 1008.51,-681.75 1481.86,-1019.61 632.31,-451.36 1329.85,-902.78 1966.78,-1355.95l738.02 -508.2c54.24,-35.75 211.95,-152.3 253.62,-171.13 15.51,420.01 1.36,869.12 1.36,1292.23 0,525.91 -9.76,3825.97 7.89,3868.2l-1.24 -5168.66 2154.99 -1539.66c47.7,-33.72 99.74,-73.3 148.91,-104.2 0,-244.37 23.23,-500.53 -16.8,-732.5 -50.86,-294.33 -171.41,-591.71 -365.55,-817.58 -127.2,-147.96 -281.36,-271.67 -446.46,-375.36 -59.6,-37.44 -138.25,-70.26 -206.99,-99.97 -37.21,-16.07 -74.37,-29.94 -110.79,-42.74 -305.84,-107.25 -679.22,-81.2 -1002.31,-81.2 -5354.17,0 -10708.34,0 -16062.51,0 -364.59,0 -518.24,-21.93 -854.69,66.31 -255.03,66.88 -489.48,207.05 -677.97,387.59 -8.07,7.79 -11.22,10.15 -18.95,17.15l-18.55 17.59c-130.7,136.56 -140.68,147.95 -241.05,300.76 -21.82,33.26 -39.01,64.5 -57.4,96.08 -20.91,35.91 -29.77,64.78 -48.54,105.04 -48.27,103.64 -91.23,227.8 -111.81,339.27 -46.86,253.68 -31.41,607.38 -29.49,882.49l-0.17 10422.58c0,200.11 -14.27,427.4 11.5,611.66 34.85,249.45 117.17,439.98 246.35,656.72 141.24,236.88 328.1,384.83 549.3,534.31 64.17,43.42 155.4,81.25 227.4,115.82 21.6,10.37 6.88,4.45 24.36,10.26l54.86 18.55c345.48,126.53 769.66,93.77 1141.07,93.77z"/>
   <path class="fil0" d="M18362.18 12308.72l-2.65 5614.84c1.47,103.41 1.01,74.6 -15.11,89.82l-15685.97 3.33 -8.8 -2.37 0 8.46 15767 0c351.28,0.39 965.26,-57.46 1274.3,-161.38 90.95,-30.56 255.03,-91.57 336.57,-141.98 209.52,-129.4 382.12,-293.88 483.84,-524.89l3.55 -9.53c85.42,-240.99 115.87,-337.29 140.06,-590.01l18.89 -3458.16c0,-641.78 -9.02,-1254.85 -9.02,-1896.57l0 -5744.08c-49.17,30.9 -213.98,0 -261.68,33.72l-2042.22 1492.63 1.24 5286.17z"/>
   <rect class="fil0" x="2532.28" y="16867.96" width="15884.36" height="1154.82"/>
   <rect class="fil0" x="2038.78" y="3340.09" width="17185.14" height="1154.82"/>
  </g>
 </g>
</svg>
